<mxfile host="Electron" agent="Mozilla/5.0 (Windows NT 10.0; Win64; x64) AppleWebKit/537.36 (KHTML, like Gecko) draw.io/24.7.8 Chrome/128.0.6613.36 Electron/32.0.1 Safari/537.36" version="24.7.8">
  <diagram name="Página-1" id="0CA3hAxMCq3za5khAhrY">
    <mxGraphModel dx="808" dy="478" grid="1" gridSize="10" guides="1" tooltips="1" connect="1" arrows="1" fold="1" page="1" pageScale="1" pageWidth="827" pageHeight="1169" math="0" shadow="0">
      <root>
        <mxCell id="0" />
        <mxCell id="1" parent="0" />
        <mxCell id="MAFXYjccX8p-bkVWWiqC-1" value="Iinterface Personaje" style="swimlane;fontStyle=1;align=center;verticalAlign=top;childLayout=stackLayout;horizontal=1;startSize=26;horizontalStack=0;resizeParent=1;resizeParentMax=0;resizeLast=0;collapsible=1;marginBottom=0;whiteSpace=wrap;html=1;" parent="1" vertex="1">
          <mxGeometry x="266" width="160" height="398" as="geometry" />
        </mxCell>
        <mxCell id="MAFXYjccX8p-bkVWWiqC-2" value="+ Nombre: String" style="text;strokeColor=none;fillColor=none;align=left;verticalAlign=top;spacingLeft=4;spacingRight=4;overflow=hidden;rotatable=0;points=[[0,0.5],[1,0.5]];portConstraint=eastwest;whiteSpace=wrap;html=1;" parent="MAFXYjccX8p-bkVWWiqC-1" vertex="1">
          <mxGeometry y="26" width="160" height="26" as="geometry" />
        </mxCell>
        <mxCell id="MAFXYjccX8p-bkVWWiqC-6" value="+ Edad: Int" style="text;strokeColor=none;fillColor=none;align=left;verticalAlign=top;spacingLeft=4;spacingRight=4;overflow=hidden;rotatable=0;points=[[0,0.5],[1,0.5]];portConstraint=eastwest;whiteSpace=wrap;html=1;" parent="MAFXYjccX8p-bkVWWiqC-1" vertex="1">
          <mxGeometry y="52" width="160" height="26" as="geometry" />
        </mxCell>
        <mxCell id="MAFXYjccX8p-bkVWWiqC-5" value="+ Genero: String" style="text;strokeColor=none;fillColor=none;align=left;verticalAlign=top;spacingLeft=4;spacingRight=4;overflow=hidden;rotatable=0;points=[[0,0.5],[1,0.5]];portConstraint=eastwest;whiteSpace=wrap;html=1;" parent="MAFXYjccX8p-bkVWWiqC-1" vertex="1">
          <mxGeometry y="78" width="160" height="26" as="geometry" />
        </mxCell>
        <mxCell id="MAFXYjccX8p-bkVWWiqC-7" value="+ Salud: Int" style="text;strokeColor=none;fillColor=none;align=left;verticalAlign=top;spacingLeft=4;spacingRight=4;overflow=hidden;rotatable=0;points=[[0,0.5],[1,0.5]];portConstraint=eastwest;whiteSpace=wrap;html=1;" parent="MAFXYjccX8p-bkVWWiqC-1" vertex="1">
          <mxGeometry y="104" width="160" height="26" as="geometry" />
        </mxCell>
        <mxCell id="H5DMQLkcsgFAPlpxJRTE-2" value="+ Daño: Int" style="text;strokeColor=none;fillColor=none;align=left;verticalAlign=top;spacingLeft=4;spacingRight=4;overflow=hidden;rotatable=0;points=[[0,0.5],[1,0.5]];portConstraint=eastwest;whiteSpace=wrap;html=1;" parent="MAFXYjccX8p-bkVWWiqC-1" vertex="1">
          <mxGeometry y="130" width="160" height="26" as="geometry" />
        </mxCell>
        <mxCell id="MAFXYjccX8p-bkVWWiqC-35" value="+ Vivo?: bool" style="text;strokeColor=none;fillColor=none;align=left;verticalAlign=top;spacingLeft=4;spacingRight=4;overflow=hidden;rotatable=0;points=[[0,0.5],[1,0.5]];portConstraint=eastwest;whiteSpace=wrap;html=1;" parent="MAFXYjccX8p-bkVWWiqC-1" vertex="1">
          <mxGeometry y="156" width="160" height="26" as="geometry" />
        </mxCell>
        <mxCell id="H5DMQLkcsgFAPlpxJRTE-3" value="+ Item: Array" style="text;strokeColor=none;fillColor=none;align=left;verticalAlign=top;spacingLeft=4;spacingRight=4;overflow=hidden;rotatable=0;points=[[0,0.5],[1,0.5]];portConstraint=eastwest;whiteSpace=wrap;html=1;" parent="MAFXYjccX8p-bkVWWiqC-1" vertex="1">
          <mxGeometry y="182" width="160" height="26" as="geometry" />
        </mxCell>
        <mxCell id="MAFXYjccX8p-bkVWWiqC-3" value="" style="line;strokeWidth=1;fillColor=none;align=left;verticalAlign=middle;spacingTop=-1;spacingLeft=3;spacingRight=3;rotatable=0;labelPosition=right;points=[];portConstraint=eastwest;strokeColor=inherit;" parent="MAFXYjccX8p-bkVWWiqC-1" vertex="1">
          <mxGeometry y="208" width="160" height="8" as="geometry" />
        </mxCell>
        <mxCell id="MAFXYjccX8p-bkVWWiqC-4" value="+ valorAtaque: Int" style="text;strokeColor=none;fillColor=none;align=left;verticalAlign=top;spacingLeft=4;spacingRight=4;overflow=hidden;rotatable=0;points=[[0,0.5],[1,0.5]];portConstraint=eastwest;whiteSpace=wrap;html=1;" parent="MAFXYjccX8p-bkVWWiqC-1" vertex="1">
          <mxGeometry y="216" width="160" height="26" as="geometry" />
        </mxCell>
        <mxCell id="MAFXYjccX8p-bkVWWiqC-33" value="+ valorArmadura: Int" style="text;strokeColor=none;fillColor=none;align=left;verticalAlign=top;spacingLeft=4;spacingRight=4;overflow=hidden;rotatable=0;points=[[0,0.5],[1,0.5]];portConstraint=eastwest;whiteSpace=wrap;html=1;" parent="MAFXYjccX8p-bkVWWiqC-1" vertex="1">
          <mxGeometry y="242" width="160" height="26" as="geometry" />
        </mxCell>
        <mxCell id="MAFXYjccX8p-bkVWWiqC-34" value="+ atacar : Int" style="text;strokeColor=none;fillColor=none;align=left;verticalAlign=top;spacingLeft=4;spacingRight=4;overflow=hidden;rotatable=0;points=[[0,0.5],[1,0.5]];portConstraint=eastwest;whiteSpace=wrap;html=1;" parent="MAFXYjccX8p-bkVWWiqC-1" vertex="1">
          <mxGeometry y="268" width="160" height="26" as="geometry" />
        </mxCell>
        <mxCell id="MAFXYjccX8p-bkVWWiqC-36" value="+ curar : Int" style="text;strokeColor=none;fillColor=none;align=left;verticalAlign=top;spacingLeft=4;spacingRight=4;overflow=hidden;rotatable=0;points=[[0,0.5],[1,0.5]];portConstraint=eastwest;whiteSpace=wrap;html=1;" parent="MAFXYjccX8p-bkVWWiqC-1" vertex="1">
          <mxGeometry y="294" width="160" height="26" as="geometry" />
        </mxCell>
        <mxCell id="MAFXYjccX8p-bkVWWiqC-38" value="+ restarVida : int" style="text;strokeColor=none;fillColor=none;align=left;verticalAlign=top;spacingLeft=4;spacingRight=4;overflow=hidden;rotatable=0;points=[[0,0.5],[1,0.5]];portConstraint=eastwest;whiteSpace=wrap;html=1;" parent="MAFXYjccX8p-bkVWWiqC-1" vertex="1">
          <mxGeometry y="320" width="160" height="26" as="geometry" />
        </mxCell>
        <mxCell id="H5DMQLkcsgFAPlpxJRTE-5" value="+ agregarItems : Array" style="text;strokeColor=none;fillColor=none;align=left;verticalAlign=top;spacingLeft=4;spacingRight=4;overflow=hidden;rotatable=0;points=[[0,0.5],[1,0.5]];portConstraint=eastwest;whiteSpace=wrap;html=1;" parent="MAFXYjccX8p-bkVWWiqC-1" vertex="1">
          <mxGeometry y="346" width="160" height="26" as="geometry" />
        </mxCell>
        <mxCell id="MAFXYjccX8p-bkVWWiqC-39" value="+ eliminarItems : Array" style="text;strokeColor=none;fillColor=none;align=left;verticalAlign=top;spacingLeft=4;spacingRight=4;overflow=hidden;rotatable=0;points=[[0,0.5],[1,0.5]];portConstraint=eastwest;whiteSpace=wrap;html=1;" parent="MAFXYjccX8p-bkVWWiqC-1" vertex="1">
          <mxGeometry y="372" width="160" height="26" as="geometry" />
        </mxCell>
        <mxCell id="MAFXYjccX8p-bkVWWiqC-9" value="Mago" style="swimlane;fontStyle=1;align=center;verticalAlign=top;childLayout=stackLayout;horizontal=1;startSize=26;horizontalStack=0;resizeParent=1;resizeParentMax=0;resizeLast=0;collapsible=1;marginBottom=0;whiteSpace=wrap;html=1;" parent="1" vertex="1">
          <mxGeometry x="6" y="479" width="230" height="86" as="geometry" />
        </mxCell>
        <mxCell id="MAFXYjccX8p-bkVWWiqC-10" value="+ grimorio: Libros" style="text;strokeColor=none;fillColor=none;align=left;verticalAlign=top;spacingLeft=4;spacingRight=4;overflow=hidden;rotatable=0;points=[[0,0.5],[1,0.5]];portConstraint=eastwest;whiteSpace=wrap;html=1;" parent="MAFXYjccX8p-bkVWWiqC-9" vertex="1">
          <mxGeometry y="26" width="230" height="26" as="geometry" />
        </mxCell>
        <mxCell id="MAFXYjccX8p-bkVWWiqC-15" value="" style="line;strokeWidth=1;fillColor=none;align=left;verticalAlign=middle;spacingTop=-1;spacingLeft=3;spacingRight=3;rotatable=0;labelPosition=right;points=[];portConstraint=eastwest;strokeColor=inherit;" parent="MAFXYjccX8p-bkVWWiqC-9" vertex="1">
          <mxGeometry y="52" width="230" height="8" as="geometry" />
        </mxCell>
        <mxCell id="4M0eOO9gOpH8bOwSufw9-5" value="+ AtaqueConHechizo(type): array" style="text;strokeColor=none;fillColor=none;align=left;verticalAlign=top;spacingLeft=4;spacingRight=4;overflow=hidden;rotatable=0;points=[[0,0.5],[1,0.5]];portConstraint=eastwest;whiteSpace=wrap;html=1;" parent="MAFXYjccX8p-bkVWWiqC-9" vertex="1">
          <mxGeometry y="60" width="230" height="26" as="geometry" />
        </mxCell>
        <mxCell id="MAFXYjccX8p-bkVWWiqC-17" value="Elfo" style="swimlane;fontStyle=1;align=center;verticalAlign=top;childLayout=stackLayout;horizontal=1;startSize=26;horizontalStack=0;resizeParent=1;resizeParentMax=0;resizeLast=0;collapsible=1;marginBottom=0;whiteSpace=wrap;html=1;" parent="1" vertex="1">
          <mxGeometry x="261" y="480" width="170" height="86" as="geometry" />
        </mxCell>
        <mxCell id="MAFXYjccX8p-bkVWWiqC-23" value="" style="line;strokeWidth=1;fillColor=none;align=left;verticalAlign=middle;spacingTop=-1;spacingLeft=3;spacingRight=3;rotatable=0;labelPosition=right;points=[];portConstraint=eastwest;strokeColor=inherit;" parent="MAFXYjccX8p-bkVWWiqC-17" vertex="1">
          <mxGeometry y="26" width="170" height="8" as="geometry" />
        </mxCell>
        <mxCell id="MAFXYjccX8p-bkVWWiqC-24" value="+ AddMagicItem(type): array" style="text;strokeColor=none;fillColor=none;align=left;verticalAlign=top;spacingLeft=4;spacingRight=4;overflow=hidden;rotatable=0;points=[[0,0.5],[1,0.5]];portConstraint=eastwest;whiteSpace=wrap;html=1;" parent="MAFXYjccX8p-bkVWWiqC-17" vertex="1">
          <mxGeometry y="34" width="170" height="26" as="geometry" />
        </mxCell>
        <mxCell id="H5DMQLkcsgFAPlpxJRTE-10" value="+ DelMagicItem(type): array" style="text;strokeColor=none;fillColor=none;align=left;verticalAlign=top;spacingLeft=4;spacingRight=4;overflow=hidden;rotatable=0;points=[[0,0.5],[1,0.5]];portConstraint=eastwest;whiteSpace=wrap;html=1;" parent="MAFXYjccX8p-bkVWWiqC-17" vertex="1">
          <mxGeometry y="60" width="170" height="26" as="geometry" />
        </mxCell>
        <mxCell id="MAFXYjccX8p-bkVWWiqC-25" value="Enano" style="swimlane;fontStyle=1;align=center;verticalAlign=top;childLayout=stackLayout;horizontal=1;startSize=26;horizontalStack=0;resizeParent=1;resizeParentMax=0;resizeLast=0;collapsible=1;marginBottom=0;whiteSpace=wrap;html=1;" parent="1" vertex="1">
          <mxGeometry x="446" y="480" width="160" height="60" as="geometry" />
        </mxCell>
        <mxCell id="MAFXYjccX8p-bkVWWiqC-31" value="" style="line;strokeWidth=1;fillColor=none;align=left;verticalAlign=middle;spacingTop=-1;spacingLeft=3;spacingRight=3;rotatable=0;labelPosition=right;points=[];portConstraint=eastwest;strokeColor=inherit;" parent="MAFXYjccX8p-bkVWWiqC-25" vertex="1">
          <mxGeometry y="26" width="160" height="8" as="geometry" />
        </mxCell>
        <mxCell id="MAFXYjccX8p-bkVWWiqC-32" value="+ method(type): type" style="text;strokeColor=none;fillColor=none;align=left;verticalAlign=top;spacingLeft=4;spacingRight=4;overflow=hidden;rotatable=0;points=[[0,0.5],[1,0.5]];portConstraint=eastwest;whiteSpace=wrap;html=1;" parent="MAFXYjccX8p-bkVWWiqC-25" vertex="1">
          <mxGeometry y="34" width="160" height="26" as="geometry" />
        </mxCell>
        <mxCell id="MAFXYjccX8p-bkVWWiqC-40" value="Interface Item" style="swimlane;fontStyle=1;align=center;verticalAlign=top;childLayout=stackLayout;horizontal=1;startSize=26;horizontalStack=0;resizeParent=1;resizeParentMax=0;resizeLast=0;collapsible=1;marginBottom=0;whiteSpace=wrap;html=1;" parent="1" vertex="1">
          <mxGeometry x="446" y="650" width="165" height="86" as="geometry" />
        </mxCell>
        <mxCell id="H5DMQLkcsgFAPlpxJRTE-12" value="+ Nombre: String" style="text;strokeColor=none;fillColor=none;align=left;verticalAlign=top;spacingLeft=4;spacingRight=4;overflow=hidden;rotatable=0;points=[[0,0.5],[1,0.5]];portConstraint=eastwest;whiteSpace=wrap;html=1;" parent="MAFXYjccX8p-bkVWWiqC-40" vertex="1">
          <mxGeometry y="26" width="165" height="26" as="geometry" />
        </mxCell>
        <mxCell id="H5DMQLkcsgFAPlpxJRTE-24" value="+ Magico?: Bool" style="text;strokeColor=none;fillColor=none;align=left;verticalAlign=top;spacingLeft=4;spacingRight=4;overflow=hidden;rotatable=0;points=[[0,0.5],[1,0.5]];portConstraint=eastwest;whiteSpace=wrap;html=1;" parent="MAFXYjccX8p-bkVWWiqC-40" vertex="1">
          <mxGeometry y="52" width="165" height="26" as="geometry" />
        </mxCell>
        <mxCell id="MAFXYjccX8p-bkVWWiqC-43" value="" style="line;strokeWidth=1;fillColor=none;align=left;verticalAlign=middle;spacingTop=-1;spacingLeft=3;spacingRight=3;rotatable=0;labelPosition=right;points=[];portConstraint=eastwest;strokeColor=inherit;" parent="MAFXYjccX8p-bkVWWiqC-40" vertex="1">
          <mxGeometry y="78" width="165" height="8" as="geometry" />
        </mxCell>
        <mxCell id="MAFXYjccX8p-bkVWWiqC-49" value="Libro" style="swimlane;fontStyle=1;align=center;verticalAlign=top;childLayout=stackLayout;horizontal=1;startSize=26;horizontalStack=0;resizeParent=1;resizeParentMax=0;resizeLast=0;collapsible=1;marginBottom=0;whiteSpace=wrap;html=1;" parent="1" vertex="1">
          <mxGeometry y="700" width="160" height="164" as="geometry" />
        </mxCell>
        <mxCell id="MAFXYjccX8p-bkVWWiqC-50" value="+ Nombre: String" style="text;strokeColor=none;fillColor=none;align=left;verticalAlign=top;spacingLeft=4;spacingRight=4;overflow=hidden;rotatable=0;points=[[0,0.5],[1,0.5]];portConstraint=eastwest;whiteSpace=wrap;html=1;" parent="MAFXYjccX8p-bkVWWiqC-49" vertex="1">
          <mxGeometry y="26" width="160" height="26" as="geometry" />
        </mxCell>
        <mxCell id="MAFXYjccX8p-bkVWWiqC-51" value="+ Hechizos: Array" style="text;strokeColor=none;fillColor=none;align=left;verticalAlign=top;spacingLeft=4;spacingRight=4;overflow=hidden;rotatable=0;points=[[0,0.5],[1,0.5]];portConstraint=eastwest;whiteSpace=wrap;html=1;" parent="MAFXYjccX8p-bkVWWiqC-49" vertex="1">
          <mxGeometry y="52" width="160" height="26" as="geometry" />
        </mxCell>
        <mxCell id="MAFXYjccX8p-bkVWWiqC-53" value="" style="line;strokeWidth=1;fillColor=none;align=left;verticalAlign=middle;spacingTop=-1;spacingLeft=3;spacingRight=3;rotatable=0;labelPosition=right;points=[];portConstraint=eastwest;strokeColor=inherit;" parent="MAFXYjccX8p-bkVWWiqC-49" vertex="1">
          <mxGeometry y="78" width="160" height="8" as="geometry" />
        </mxCell>
        <mxCell id="MAFXYjccX8p-bkVWWiqC-54" value="+ agregarHechizo: Array" style="text;strokeColor=none;fillColor=none;align=left;verticalAlign=top;spacingLeft=4;spacingRight=4;overflow=hidden;rotatable=0;points=[[0,0.5],[1,0.5]];portConstraint=eastwest;whiteSpace=wrap;html=1;" parent="MAFXYjccX8p-bkVWWiqC-49" vertex="1">
          <mxGeometry y="86" width="160" height="26" as="geometry" />
        </mxCell>
        <mxCell id="MAFXYjccX8p-bkVWWiqC-55" value="+ EliminarHechizo: Array" style="text;strokeColor=none;fillColor=none;align=left;verticalAlign=top;spacingLeft=4;spacingRight=4;overflow=hidden;rotatable=0;points=[[0,0.5],[1,0.5]];portConstraint=eastwest;whiteSpace=wrap;html=1;" parent="MAFXYjccX8p-bkVWWiqC-49" vertex="1">
          <mxGeometry y="112" width="160" height="26" as="geometry" />
        </mxCell>
        <mxCell id="MAFXYjccX8p-bkVWWiqC-56" value="+ mostrarHechizos: String" style="text;strokeColor=none;fillColor=none;align=left;verticalAlign=top;spacingLeft=4;spacingRight=4;overflow=hidden;rotatable=0;points=[[0,0.5],[1,0.5]];portConstraint=eastwest;whiteSpace=wrap;html=1;" parent="MAFXYjccX8p-bkVWWiqC-49" vertex="1">
          <mxGeometry y="138" width="160" height="26" as="geometry" />
        </mxCell>
        <mxCell id="MAFXYjccX8p-bkVWWiqC-57" value="Hechizos" style="swimlane;fontStyle=1;align=center;verticalAlign=top;childLayout=stackLayout;horizontal=1;startSize=26;horizontalStack=0;resizeParent=1;resizeParentMax=0;resizeLast=0;collapsible=1;marginBottom=0;whiteSpace=wrap;html=1;" parent="1" vertex="1">
          <mxGeometry y="930" width="160" height="138" as="geometry" />
        </mxCell>
        <mxCell id="MAFXYjccX8p-bkVWWiqC-58" value="+ Nombre: String" style="text;strokeColor=none;fillColor=none;align=left;verticalAlign=top;spacingLeft=4;spacingRight=4;overflow=hidden;rotatable=0;points=[[0,0.5],[1,0.5]];portConstraint=eastwest;whiteSpace=wrap;html=1;" parent="MAFXYjccX8p-bkVWWiqC-57" vertex="1">
          <mxGeometry y="26" width="160" height="26" as="geometry" />
        </mxCell>
        <mxCell id="MAFXYjccX8p-bkVWWiqC-59" value="+ Ataque: Int" style="text;strokeColor=none;fillColor=none;align=left;verticalAlign=top;spacingLeft=4;spacingRight=4;overflow=hidden;rotatable=0;points=[[0,0.5],[1,0.5]];portConstraint=eastwest;whiteSpace=wrap;html=1;" parent="MAFXYjccX8p-bkVWWiqC-57" vertex="1">
          <mxGeometry y="52" width="160" height="26" as="geometry" />
        </mxCell>
        <mxCell id="MAFXYjccX8p-bkVWWiqC-61" value="" style="line;strokeWidth=1;fillColor=none;align=left;verticalAlign=middle;spacingTop=-1;spacingLeft=3;spacingRight=3;rotatable=0;labelPosition=right;points=[];portConstraint=eastwest;strokeColor=inherit;" parent="MAFXYjccX8p-bkVWWiqC-57" vertex="1">
          <mxGeometry y="78" width="160" height="8" as="geometry" />
        </mxCell>
        <mxCell id="MAFXYjccX8p-bkVWWiqC-62" value="+ Nombre: Get, Set" style="text;strokeColor=none;fillColor=none;align=left;verticalAlign=top;spacingLeft=4;spacingRight=4;overflow=hidden;rotatable=0;points=[[0,0.5],[1,0.5]];portConstraint=eastwest;whiteSpace=wrap;html=1;" parent="MAFXYjccX8p-bkVWWiqC-57" vertex="1">
          <mxGeometry y="86" width="160" height="26" as="geometry" />
        </mxCell>
        <mxCell id="MAFXYjccX8p-bkVWWiqC-63" value="+ Ataque: Get, Set" style="text;strokeColor=none;fillColor=none;align=left;verticalAlign=top;spacingLeft=4;spacingRight=4;overflow=hidden;rotatable=0;points=[[0,0.5],[1,0.5]];portConstraint=eastwest;whiteSpace=wrap;html=1;" parent="MAFXYjccX8p-bkVWWiqC-57" vertex="1">
          <mxGeometry y="112" width="160" height="26" as="geometry" />
        </mxCell>
        <mxCell id="H5DMQLkcsgFAPlpxJRTE-11" value="" style="endArrow=block;dashed=1;endFill=0;endSize=12;html=1;rounded=0;entryX=0.503;entryY=1.107;entryDx=0;entryDy=0;entryPerimeter=0;exitX=0.5;exitY=0;exitDx=0;exitDy=0;" parent="1" source="MAFXYjccX8p-bkVWWiqC-17" target="MAFXYjccX8p-bkVWWiqC-39" edge="1">
          <mxGeometry width="160" relative="1" as="geometry">
            <mxPoint x="336" y="470" as="sourcePoint" />
            <mxPoint x="496" y="470" as="targetPoint" />
          </mxGeometry>
        </mxCell>
        <mxCell id="H5DMQLkcsgFAPlpxJRTE-20" value="" style="endArrow=block;dashed=1;endFill=0;endSize=12;html=1;rounded=0;" parent="1" edge="1">
          <mxGeometry width="160" relative="1" as="geometry">
            <mxPoint x="116" y="477" as="sourcePoint" />
            <mxPoint x="346" y="400" as="targetPoint" />
            <Array as="points">
              <mxPoint x="116" y="460" />
              <mxPoint x="116" y="450" />
              <mxPoint x="346" y="450" />
            </Array>
          </mxGeometry>
        </mxCell>
        <mxCell id="H5DMQLkcsgFAPlpxJRTE-22" value="" style="endArrow=block;dashed=1;endFill=0;endSize=12;html=1;rounded=0;exitX=0.5;exitY=0;exitDx=0;exitDy=0;" parent="1" edge="1">
          <mxGeometry width="160" relative="1" as="geometry">
            <mxPoint x="525.71" y="480" as="sourcePoint" />
            <mxPoint x="346" y="400" as="targetPoint" />
            <Array as="points">
              <mxPoint x="526" y="450" />
              <mxPoint x="346" y="450" />
            </Array>
          </mxGeometry>
        </mxCell>
        <mxCell id="H5DMQLkcsgFAPlpxJRTE-36" value="" style="endArrow=block;endFill=1;html=1;edgeStyle=orthogonalEdgeStyle;align=left;verticalAlign=top;rounded=0;exitX=0.5;exitY=0;exitDx=0;exitDy=0;" parent="1" source="MAFXYjccX8p-bkVWWiqC-57" edge="1">
          <mxGeometry x="-1" relative="1" as="geometry">
            <mxPoint x="80.35" y="924" as="sourcePoint" />
            <mxPoint x="79.6" y="864" as="targetPoint" />
            <Array as="points">
              <mxPoint x="80" y="895" />
              <mxPoint x="80" y="895" />
            </Array>
          </mxGeometry>
        </mxCell>
        <mxCell id="H5DMQLkcsgFAPlpxJRTE-38" value="" style="endArrow=block;endFill=1;html=1;edgeStyle=orthogonalEdgeStyle;align=left;verticalAlign=top;rounded=0;exitX=0.5;exitY=0;exitDx=0;exitDy=0;" parent="1" edge="1">
          <mxGeometry x="-1" relative="1" as="geometry">
            <mxPoint x="79.47" y="700" as="sourcePoint" />
            <mxPoint x="79.47" y="570" as="targetPoint" />
            <Array as="points">
              <mxPoint x="79.47" y="635" />
              <mxPoint x="79.47" y="635" />
            </Array>
          </mxGeometry>
        </mxCell>
        <mxCell id="WPbrBqXVrYK9sGID3n6M-1" value="Interface Atacar" style="swimlane;fontStyle=1;align=center;verticalAlign=top;childLayout=stackLayout;horizontal=1;startSize=26;horizontalStack=0;resizeParent=1;resizeParentMax=0;resizeLast=0;collapsible=1;marginBottom=0;whiteSpace=wrap;html=1;" parent="1" vertex="1">
          <mxGeometry x="346" y="830" width="165" height="60" as="geometry" />
        </mxCell>
        <mxCell id="WPbrBqXVrYK9sGID3n6M-3" value="+ AtackValue : int" style="text;strokeColor=none;fillColor=none;align=left;verticalAlign=top;spacingLeft=4;spacingRight=4;overflow=hidden;rotatable=0;points=[[0,0.5],[1,0.5]];portConstraint=eastwest;whiteSpace=wrap;html=1;" parent="WPbrBqXVrYK9sGID3n6M-1" vertex="1">
          <mxGeometry y="26" width="165" height="26" as="geometry" />
        </mxCell>
        <mxCell id="WPbrBqXVrYK9sGID3n6M-6" value="" style="line;strokeWidth=1;fillColor=none;align=left;verticalAlign=middle;spacingTop=-1;spacingLeft=3;spacingRight=3;rotatable=0;labelPosition=right;points=[];portConstraint=eastwest;strokeColor=inherit;" parent="WPbrBqXVrYK9sGID3n6M-1" vertex="1">
          <mxGeometry y="52" width="165" height="8" as="geometry" />
        </mxCell>
        <mxCell id="WPbrBqXVrYK9sGID3n6M-7" value="Interface Defender" style="swimlane;fontStyle=1;align=center;verticalAlign=top;childLayout=stackLayout;horizontal=1;startSize=26;horizontalStack=0;resizeParent=1;resizeParentMax=0;resizeLast=0;collapsible=1;marginBottom=0;whiteSpace=wrap;html=1;" parent="1" vertex="1">
          <mxGeometry x="546" y="830" width="165" height="60" as="geometry" />
        </mxCell>
        <mxCell id="WPbrBqXVrYK9sGID3n6M-10" value="+ DefenseValue : int" style="text;strokeColor=none;fillColor=none;align=left;verticalAlign=top;spacingLeft=4;spacingRight=4;overflow=hidden;rotatable=0;points=[[0,0.5],[1,0.5]];portConstraint=eastwest;whiteSpace=wrap;html=1;" parent="WPbrBqXVrYK9sGID3n6M-7" vertex="1">
          <mxGeometry y="26" width="165" height="26" as="geometry" />
        </mxCell>
        <mxCell id="WPbrBqXVrYK9sGID3n6M-12" value="" style="line;strokeWidth=1;fillColor=none;align=left;verticalAlign=middle;spacingTop=-1;spacingLeft=3;spacingRight=3;rotatable=0;labelPosition=right;points=[];portConstraint=eastwest;strokeColor=inherit;" parent="WPbrBqXVrYK9sGID3n6M-7" vertex="1">
          <mxGeometry y="52" width="165" height="8" as="geometry" />
        </mxCell>
        <mxCell id="WPbrBqXVrYK9sGID3n6M-13" value="Item Atacar Clase" style="swimlane;fontStyle=1;align=center;verticalAlign=top;childLayout=stackLayout;horizontal=1;startSize=26;horizontalStack=0;resizeParent=1;resizeParentMax=0;resizeLast=0;collapsible=1;marginBottom=0;whiteSpace=wrap;html=1;" parent="1" vertex="1">
          <mxGeometry x="256" y="980" width="165" height="34" as="geometry" />
        </mxCell>
        <mxCell id="WPbrBqXVrYK9sGID3n6M-15" value="" style="line;strokeWidth=1;fillColor=none;align=left;verticalAlign=middle;spacingTop=-1;spacingLeft=3;spacingRight=3;rotatable=0;labelPosition=right;points=[];portConstraint=eastwest;strokeColor=inherit;" parent="WPbrBqXVrYK9sGID3n6M-13" vertex="1">
          <mxGeometry y="26" width="165" height="8" as="geometry" />
        </mxCell>
        <mxCell id="WPbrBqXVrYK9sGID3n6M-16" value="Atacar/Defender Item" style="swimlane;fontStyle=1;align=center;verticalAlign=top;childLayout=stackLayout;horizontal=1;startSize=26;horizontalStack=0;resizeParent=1;resizeParentMax=0;resizeLast=0;collapsible=1;marginBottom=0;whiteSpace=wrap;html=1;" parent="1" vertex="1">
          <mxGeometry x="456" y="980" width="165" height="34" as="geometry" />
        </mxCell>
        <mxCell id="WPbrBqXVrYK9sGID3n6M-18" value="" style="line;strokeWidth=1;fillColor=none;align=left;verticalAlign=middle;spacingTop=-1;spacingLeft=3;spacingRight=3;rotatable=0;labelPosition=right;points=[];portConstraint=eastwest;strokeColor=inherit;" parent="WPbrBqXVrYK9sGID3n6M-16" vertex="1">
          <mxGeometry y="26" width="165" height="8" as="geometry" />
        </mxCell>
        <mxCell id="WPbrBqXVrYK9sGID3n6M-19" value="Defender Item" style="swimlane;fontStyle=1;align=center;verticalAlign=top;childLayout=stackLayout;horizontal=1;startSize=26;horizontalStack=0;resizeParent=1;resizeParentMax=0;resizeLast=0;collapsible=1;marginBottom=0;whiteSpace=wrap;html=1;" parent="1" vertex="1">
          <mxGeometry x="656" y="980" width="165" height="34" as="geometry" />
        </mxCell>
        <mxCell id="WPbrBqXVrYK9sGID3n6M-21" value="" style="line;strokeWidth=1;fillColor=none;align=left;verticalAlign=middle;spacingTop=-1;spacingLeft=3;spacingRight=3;rotatable=0;labelPosition=right;points=[];portConstraint=eastwest;strokeColor=inherit;" parent="WPbrBqXVrYK9sGID3n6M-19" vertex="1">
          <mxGeometry y="26" width="165" height="8" as="geometry" />
        </mxCell>
        <mxCell id="WPbrBqXVrYK9sGID3n6M-22" value="" style="endArrow=block;dashed=1;endFill=0;endSize=12;html=1;rounded=0;entryX=0.25;entryY=1;entryDx=0;entryDy=0;exitX=0.5;exitY=0;exitDx=0;exitDy=0;" parent="1" edge="1" target="MAFXYjccX8p-bkVWWiqC-40">
          <mxGeometry width="160" relative="1" as="geometry">
            <mxPoint x="421" y="830" as="sourcePoint" />
            <mxPoint x="421" y="751" as="targetPoint" />
            <Array as="points">
              <mxPoint x="421" y="780" />
              <mxPoint x="487" y="780" />
            </Array>
          </mxGeometry>
        </mxCell>
        <mxCell id="WPbrBqXVrYK9sGID3n6M-23" value="" style="endArrow=block;dashed=1;endFill=0;endSize=12;html=1;rounded=0;entryX=0.503;entryY=1.107;entryDx=0;entryDy=0;entryPerimeter=0;exitX=0.5;exitY=0;exitDx=0;exitDy=0;" parent="1" edge="1" source="WPbrBqXVrYK9sGID3n6M-7">
          <mxGeometry width="160" relative="1" as="geometry">
            <mxPoint x="556" y="815" as="sourcePoint" />
            <mxPoint x="556" y="736" as="targetPoint" />
            <Array as="points">
              <mxPoint x="626" y="780" />
              <mxPoint x="556" y="780" />
            </Array>
          </mxGeometry>
        </mxCell>
        <mxCell id="WPbrBqXVrYK9sGID3n6M-24" value="" style="endArrow=block;dashed=1;endFill=0;endSize=12;html=1;rounded=0;exitX=0.5;exitY=0;exitDx=0;exitDy=0;" parent="1" edge="1">
          <mxGeometry width="160" relative="1" as="geometry">
            <mxPoint x="742" y="980" as="sourcePoint" />
            <mxPoint x="666" y="890" as="targetPoint" />
            <Array as="points">
              <mxPoint x="742" y="940" />
              <mxPoint x="666" y="940" />
            </Array>
          </mxGeometry>
        </mxCell>
        <mxCell id="WPbrBqXVrYK9sGID3n6M-25" value="" style="endArrow=block;dashed=1;endFill=0;endSize=12;html=1;rounded=0;entryX=0.503;entryY=1.107;entryDx=0;entryDy=0;entryPerimeter=0;exitX=0.5;exitY=0;exitDx=0;exitDy=0;" parent="1" edge="1" source="WPbrBqXVrYK9sGID3n6M-13">
          <mxGeometry width="160" relative="1" as="geometry">
            <mxPoint x="386" y="969" as="sourcePoint" />
            <mxPoint x="386" y="890" as="targetPoint" />
            <Array as="points">
              <mxPoint x="339" y="940" />
              <mxPoint x="386" y="940" />
            </Array>
          </mxGeometry>
        </mxCell>
        <mxCell id="WPbrBqXVrYK9sGID3n6M-26" value="" style="endArrow=block;dashed=1;endFill=0;endSize=12;html=1;rounded=0;entryX=0.503;entryY=1.107;entryDx=0;entryDy=0;entryPerimeter=0;exitX=0.25;exitY=0;exitDx=0;exitDy=0;" parent="1" edge="1" source="WPbrBqXVrYK9sGID3n6M-16">
          <mxGeometry width="160" relative="1" as="geometry">
            <mxPoint x="456" y="969" as="sourcePoint" />
            <mxPoint x="456" y="890" as="targetPoint" />
            <Array as="points">
              <mxPoint x="497" y="940" />
              <mxPoint x="456" y="940" />
            </Array>
          </mxGeometry>
        </mxCell>
        <mxCell id="WPbrBqXVrYK9sGID3n6M-27" value="" style="endArrow=block;dashed=1;endFill=0;endSize=12;html=1;rounded=0;entryX=0.503;entryY=1.107;entryDx=0;entryDy=0;entryPerimeter=0;" parent="1" edge="1">
          <mxGeometry width="160" relative="1" as="geometry">
            <mxPoint x="556" y="977" as="sourcePoint" />
            <mxPoint x="596" y="890" as="targetPoint" />
            <Array as="points">
              <mxPoint x="556" y="940" />
              <mxPoint x="596" y="940" />
            </Array>
          </mxGeometry>
        </mxCell>
        <mxCell id="g6TGiSdWYNbW-GHd7Orf-1" value="" style="endArrow=block;dashed=1;endFill=0;endSize=12;html=1;rounded=0;exitX=0.5;exitY=0;exitDx=0;exitDy=0;" edge="1" parent="1" source="MAFXYjccX8p-bkVWWiqC-40">
          <mxGeometry width="160" relative="1" as="geometry">
            <mxPoint x="460" y="634" as="sourcePoint" />
            <mxPoint x="529" y="540" as="targetPoint" />
            <Array as="points">
              <mxPoint x="529" y="620" />
              <mxPoint x="529" y="584" />
            </Array>
          </mxGeometry>
        </mxCell>
        <mxCell id="g6TGiSdWYNbW-GHd7Orf-2" value="" style="endArrow=block;dashed=1;endFill=0;endSize=12;html=1;rounded=0;exitX=0;exitY=0.5;exitDx=0;exitDy=0;" edge="1" parent="1" source="H5DMQLkcsgFAPlpxJRTE-12">
          <mxGeometry width="160" relative="1" as="geometry">
            <mxPoint x="345.74" y="675" as="sourcePoint" />
            <mxPoint x="345.74" y="565" as="targetPoint" />
            <Array as="points">
              <mxPoint x="346" y="690" />
              <mxPoint x="345.74" y="609" />
            </Array>
          </mxGeometry>
        </mxCell>
        <mxCell id="g6TGiSdWYNbW-GHd7Orf-3" value="" style="endArrow=block;dashed=1;endFill=0;endSize=12;html=1;rounded=0;exitX=0;exitY=0.5;exitDx=0;exitDy=0;" edge="1" parent="1" source="H5DMQLkcsgFAPlpxJRTE-24">
          <mxGeometry width="160" relative="1" as="geometry">
            <mxPoint x="300.26" y="690" as="sourcePoint" />
            <mxPoint x="200" y="566" as="targetPoint" />
            <Array as="points">
              <mxPoint x="200" y="715" />
              <mxPoint x="200" y="610" />
            </Array>
          </mxGeometry>
        </mxCell>
      </root>
    </mxGraphModel>
  </diagram>
</mxfile>
